<svg xmlns="http://www.w3.org/2000/svg" width="24" height="24" viewBox="0 0 24 24">
  <g fill="none" fill-rule="evenodd">
    <rect width="24" height="24"/>
    <path fill="#000000" d="M2,4 C0.8954305,4 0,3.1045695 0,2 C0,0.8954305 0.8954305,0 2,0 C3.1045695,0 4,0.8954305 4,2 C4,3.1045695 3.1045695,4 2,4 Z M2,12 C0.8954305,12 0,11.1045695 0,10 C0,8.8954305 0.8954305,8 2,8 C3.1045695,8 4,8.8954305 4,10 C4,11.1045695 3.1045695,12 2,12 Z M2,20 C0.8954305,20 0,19.1045695 0,18 C0,16.8954305 0.8954305,16 2,16 C3.1045695,16 4,16.8954305 4,18 C4,19.1045695 3.1045695,20 2,20 Z" transform="translate(10 2)"/>
  </g>
</svg>
