<svg xmlns="http://www.w3.org/2000/svg" width="24" height="24" viewBox="0 0 24 24">
  <g fill="none" fill-rule="evenodd">
    <path fill="#000000" fill-rule="nonzero" d="M2.81066017,5.25 L6.53033009,1.53033009 C6.8232233,1.23743687 6.8232233,0.762563133 6.53033009,0.469669914 C6.23743687,0.176776695 5.76256313,0.176776695 5.46966991,0.469669914 L0.469669914,5.46966991 C0.176776695,5.76256313 0.176776695,6.23743687 0.469669914,6.53033009 L5.46966991,11.5303301 C5.76256313,11.8232233 6.23743687,11.8232233 6.53033009,11.5303301 C6.8232233,11.2374369 6.8232233,10.7625631 6.53033009,10.4696699 L2.81066017,6.75 L15,6.75 C15.4142136,6.75 15.75,6.41421356 15.75,6 C15.75,5.58578644 15.4142136,5.25 15,5.25 L2.81066017,5.25 L2.81066017,5.25 Z" transform="rotate(-180 10 9)"/>
  </g>
</svg>
