<svg xmlns="http://www.w3.org/2000/svg" width="24" height="24" viewBox="0 0 24 24">
  <g fill="none" fill-rule="evenodd">
    <g fill="#000000" fill-rule="nonzero" transform="translate(3 2)">
      <path d="M9.5 3.38144L9.5 2.18 9.5 1.5887C9.43203 1.55454 9.2791 1.5 9 1.5 8.7209 1.5 8.56797 1.55454 8.5 1.5887L8.5 2.18 8.5 3.38144 7.32756 3.6438C5.00136 4.16433 3.5 6.1038 3.5 8.5L3.5 14 3.5 14.6213 3.06066 15.0607 2.62132 15.5 15.3787 15.5 14.9393 15.0607 14.5 14.6213 14.5 14 14.5 8.5C14.5 6.1038 12.9986 4.16433 10.6724 3.6438L9.5 3.38144zM17.5 15.5L18 16 18 17 17 17 16.8787 17 16.5 17 1.5 17 1.12132 17 1 17 0 17 0 16 .5 15.5 2 14 2 8.5C2 5.43 3.96118 2.86 7 2.18L7 1.5C7 .67 7.73559 0 9 0 10.2644 0 11 .67 11 1.5L11 2.18C14.0388 2.86 16 5.43 16 8.5L16 14 17.5 15.5zM6.5 18L11.5 18C11.5 19.1 10.375 20 9 20 7.625 20 6.5 19.1 6.5 18z"/>
    </g>
  </g>
</svg>
