<svg xmlns="http://www.w3.org/2000/svg" width="24" height="24" viewBox="0 0 24 24">
  <g fill="none" fill-rule="evenodd">
    <path fill="#000000" fill-rule="nonzero" d="M9.98585945,19.9717189 C4.47082156,19.9717189 -1.77635684e-14,15.5008973 -1.77635684e-14,9.98585945 C-1.77635684e-14,4.47082156 4.47082156,-1.77635684e-14 9.98585945,-1.77635684e-14 C15.5008973,-1.77635684e-14 19.9717189,4.47082156 19.9717189,9.98585945 C19.9717189,15.5008973 15.5008973,19.9717189 9.98585945,19.9717189 Z M3.47845916,15.4325996 L3.47845916,15.4325996 L15.4325996,3.47845916 C13.9587413,2.24351827 12.0591294,1.5 9.98585945,1.5 C5.29924869,1.5 1.5,5.29924869 1.5,9.98585945 C1.5,12.0591294 2.24351827,13.9587413 3.47845916,15.4325996 Z M16.4999998,4.54585939 L4.54585939,16.4999998 C6.01971767,17.7349407 7.91932959,18.478459 9.99259951,18.478459 C14.6792103,18.478459 18.478459,14.6792103 18.478459,9.99259951 C18.478459,7.91932959 17.7349407,6.01971767 16.4999998,4.54585939 Z" transform="translate(2.014 2.014)"/>
  </g>
</svg>
