<svg xmlns="http://www.w3.org/2000/svg" width="24" height="24" viewBox="0 0 24 24">
  <g fill="none" fill-rule="evenodd">
    <path fill="#000000" fill-rule="nonzero" d="M18,5.5 L6,5.5 L6,18.5 L18,18.5 L18,5.5 Z M19,5.5 L19,18.5 L21.9950534,18.5 C22.2760844,18.5 22.5,18.2772527 22.5,18.0059397 L22.5,5.99406028 C22.5,5.72396896 22.2749442,5.5 21.9950534,5.5 L19,5.5 L19,5.5 Z M5,5.5 L2.00494659,5.5 C1.72391563,5.5 1.5,5.72274732 1.5,5.99406028 L1.5,18.0059397 C1.5,18.276031 1.72505584,18.5 2.00494659,18.5 L5,18.5 L5,5.5 L5,5.5 Z M7.5,4 L7.5,3 C7.5,1.6232331 8.61860731,0.5 9.99077797,0.5 L14.009222,0.5 C15.3883866,0.5 16.5,1.61897613 16.5,3 L16.5,4 L21.9950534,4 C23.1023548,4 24,4.89451376 24,5.99406028 L24,18.0059397 C24,19.1072288 23.1029738,20 21.9950534,20 L2.00494659,20 C0.897645164,20 0,19.1054862 0,18.0059397 L0,5.99406028 C0,4.8927712 0.897026226,4 2.00494659,4 L7.5,4 Z M9,3 L9,4 L15,4 L15,3 C15,2.44386482 14.5564136,2 14.009222,2 L9.99077797,2 C9.45097518,2 9,2.44771525 9,3 Z" transform="translate(0 1)"/>
  </g>
</svg>
