<svg xmlns="http://www.w3.org/2000/svg" width="24" height="24" viewBox="0 0 24 24">
  <g fill="none" fill-rule="evenodd">
    <path fill="#000000" fill-rule="nonzero" d="M12,23 C18.0751322,23 23,18.0751322 23,12 C23,5.92486775 18.0751322,1 12,1 C5.92486775,1 1,5.92486775 1,12 C1,18.0751322 5.92486775,23 12,23 Z M12,24 C5.372583,24 0,18.627417 0,12 C0,5.372583 5.372583,0 12,0 C18.627417,0 24,5.372583 24,12 C24,18.627417 18.627417,24 12,24 Z"/>
    <polygon fill="#000000" fill-rule="nonzero" points="10.586 12 7.086 15.5 8.5 16.914 12 13.414 15.5 16.914 16.914 15.5 13.414 12 16.914 8.5 15.5 7.086 12 10.586 8.5 7.086 7.086 8.5 10.586 12"/>
  </g>
</svg>
