<svg xmlns="http://www.w3.org/2000/svg" width="24" height="24" viewBox="0 0 24 24">
  <g fill="none" fill-rule="evenodd">
    <path fill="#000000" fill-rule="nonzero" d="M14.2989762,3.42029654 L14.2989762,7.18115758 C14.2989762,7.35268755 14.514968,7.58252593 14.6309805,7.58252593 L18.4612056,7.58252593 L14.2989762,3.42029654 Z M19.5,9.08252593 L17.2683661,9.08252593 L14.6309805,9.08252593 C13.6649887,9.08252593 12.7989762,8.16099596 12.7989762,7.18115758 L12.7989762,2.5 L4.99201702,2.5 C4.72461926,2.5 4.5,2.72387619 4.5,2.991155 L4.5,21.008845 C4.5,21.2804051 4.72016605,21.5 4.99508929,21.5 L19.0049107,21.5 C19.2792084,21.5 19.5,21.2795166 19.5,21.0081158 L19.5,9.08252593 Z M3,2.991155 C3,1.89147046 3.90017617,1 4.99201702,1 L14,1 L21,8 L21,21.0081158 C21,22.1082031 20.1073772,23 19.0049107,23 L4.99508929,23 C3.8932319,23 3,22.1103261 3,21.008845 L3,2.991155 Z"/>
  </g>
</svg>
