<svg xmlns="http://www.w3.org/2000/svg" width="24" height="24" viewBox="0 0 24 24">
  <g fill="none" fill-rule="evenodd">
    <rect width="24" height="24"/>
    <path fill="#000000" fill-rule="nonzero" d="M-1.73472348e-17,8.75258742 L-1.73472348e-17,6.25 C-1.28369537e-16,5.83578644 0.335786438,5.5 0.75,5.5 C1.16421356,5.5 1.5,5.83578644 1.5,6.25 L1.5,8.5 L22.5,8.5 L22.5,6.25 C22.5,5.83578644 22.8357864,5.5 23.25,5.5 C23.6642136,5.5 24,5.83578644 24,6.25 L24,8.71054472 C24.015329,8.91536989 24.0267676,9.22389049 23.9799456,9.42227736 L20.9117637,22.4222774 C20.8318621,22.7608236 20.5296657,23 20.1818182,23 L3.81818182,23 C3.47033434,23 3.16813792,22.7608236 3.08823626,22.4222774 L0.0200544463,9.42227736 C-0.0197729662,9.25352714 -0.0125792113,8.96262339 -9.45424294e-15,8.75258742 L-1.73472348e-17,8.75258742 Z M5,5 C4.72385763,5 4.5,4.77614237 4.5,4.5 C4.5,4.22385763 4.72385763,4 5,4 L20,4 C20.2761424,4 20.5,4.22385763 20.5,4.5 C20.5,4.77614237 20.2761424,5 20,5 L5,5 Z M7,2 C6.72385763,2 6.5,1.77614237 6.5,1.5 C6.5,1.22385763 6.72385763,1 7,1 L17,1 C17.2761424,1 17.5,1.22385763 17.5,1.5 C17.5,1.77614237 17.2761424,2 17,2 L7,2 Z M4.41177675,21.5 L19.5882233,21.5 L22.3023841,10 L1.69761591,10 L4.41177675,21.5 Z M9.25,15.75 L9.25,14.5 C9.25,14.0857864 8.91421356,13.75 8.5,13.75 C8.08578644,13.75 7.75,14.0857864 7.75,14.5 L7.75,16.5 C7.75,16.9142136 8.08578644,17.25 8.5,17.25 L15.5,17.25 C15.9142136,17.25 16.25,16.9142136 16.25,16.5 L16.25,14.5 C16.25,14.0857864 15.9142136,13.75 15.5,13.75 C15.0857864,13.75 14.75,14.0857864 14.75,14.5 L14.75,15.75 L9.25,15.75 Z"/>
  </g>
</svg>
