<svg xmlns="http://www.w3.org/2000/svg" width="24" height="24" viewBox="0 0 24 24">
  <g fill="none" fill-rule="evenodd">
    <rect width="24" height="24"/>
    <g fill="#000000" fill-rule="nonzero" transform="translate(0 1.5)">
      <path d="M10.25,15 L13.75,15 L13.75,19.259222 C13.75,20.2230423 14.5319193,21 15.4998075,21 L18.5001925,21 C19.4662747,21 20.25,20.2182134 20.25,19.2524554 L20.25,11.25 C20.25,10.8357864 19.9142136,10.5 19.5,10.5 C19.0857864,10.5 18.75,10.8357864 18.75,11.25 L18.75,19.2524554 C18.75,19.3889535 18.6386781,19.5 18.5001925,19.5 L15.4998075,19.5 C15.3582165,19.5 15.25,19.3924702 15.25,19.259222 L15.25,14.25 C15.25,13.8357864 14.9142136,13.5 14.5,13.5 L9.5,13.5 C9.08578644,13.5 8.75,13.8357864 8.75,14.25 L8.75,19.259222 C8.75,19.3867012 8.63625454,19.5 8.50019251,19.5 L5.49980749,19.5 C5.35935547,19.5 5.25,19.3905963 5.25,19.2524554 L5.25,11.25 C5.25,10.8357864 4.91421356,10.5 4.5,10.5 C4.08578644,10.5 3.75,10.8357864 3.75,11.25 L3.75,19.2524554 C3.75,20.2188755 4.53078029,21 5.49980749,21 L8.50019251,21 C9.46336347,21 10.25,20.2164522 10.25,19.259222 L10.25,15 Z"/>
      <path d="M21.996815,10.8061518 C22.3039692,11.0840532 22.7782504,11.0603392 23.0561518,10.753185 C23.3340532,10.4460308 23.3103392,9.97174956 23.003185,9.69384817 L12.503185,0.193848166 C12.217514,-0.0646160552 11.782486,-0.0646160552 11.496815,0.193848166 L0.996815007,9.69384817 C0.68966083,9.97174956 0.665946768,10.4460308 0.943848166,10.753185 C1.22174956,11.0603392 1.69603082,11.0840532 2.00318499,10.8061518 L12,1.76141445 L21.996815,10.8061518 Z"/>
    </g>
  </g>
</svg>
