<svg xmlns="http://www.w3.org/2000/svg" width="24" height="24" viewBox="0 0 24 24">
  <g fill="none" fill-rule="evenodd">
    <rect width="24" height="24"/>
    <path fill="#000000" fill-rule="nonzero" d="M10.2377511,17.9761651 L11.2434421,12.1498713 L9.482329,13.3133907 L8.517671,11.853276 L11.967671,9.57395499 C12.6073561,9.15133251 13.4426598,9.69733437 13.3122489,10.4528473 L12.2929429,16.3580172 L13.9396338,15.3392312 L14.8603662,16.8274354 L11.5603662,18.8691021 C10.9189052,19.2659656 10.1094464,18.7194757 10.2377511,17.9761651 Z M12.6,7.91666667 C11.7715729,7.91666667 11.1,7.26374859 11.1,6.45833333 C11.1,5.65291807 11.7715729,5 12.6,5 C13.4284271,5 14.1,5.65291807 14.1,6.45833333 C14.1,7.26374859 13.4284271,7.91666667 12.6,7.91666667 Z"/>
  </g>
</svg>
