<svg xmlns="http://www.w3.org/2000/svg" width="24" height="24" viewBox="0 0 24 24">
  <g fill="none" fill-rule="evenodd">
    <rect width="24" height="24"/>
    <path fill="#000000" d="M10.9605263,12.5067204 C11.1505857,12.0116463 11.4883017,11.5515254 11.9736842,11.1263441 C12.4415228,10.7302848 12.7865486,10.3793698 13.0087719,10.0735887 C13.2309953,9.76780761 13.3421053,9.42854129 13.3421053,9.05577957 C13.3421053,8.11222647 12.9064371,7.64045699 12.0350877,7.64045699 C11.6491209,7.64045699 11.3245627,7.76276759 11.0614035,8.00739247 C10.7982443,8.25201735 10.6637427,8.61894917 10.6578947,9.10819892 L8,9.10819892 C8.01169596,8.30443147 8.1929807,7.63172314 8.54385965,7.09005376 C8.8947386,6.54838439 9.37134202,6.14796277 9.97368421,5.88877688 C10.5760264,5.629591 11.263154,5.5 12.0350877,5.5 C12.8655012,5.5 13.5760204,5.63250316 14.1666667,5.89751344 C14.7573129,6.16252373 15.2105247,6.55129672 15.5263158,7.06384409 C15.8421068,7.57639145 16,8.1995931 16,8.93346774 C16,9.39359549 15.9166675,9.80566574 15.75,10.1696909 C15.5833325,10.533716 15.3698843,10.8584215 15.1096491,11.1438172 C14.8494139,11.4292129 14.4883064,11.7874082 14.0263158,12.218414 L13.8596491,12.3669355 C13.5380101,12.6523312 13.3157901,12.9508273 13.1929825,13.2624328 C13.0701748,13.5740383 13.002924,13.9657234 12.9912281,14.4375 L10.6666667,14.4375 C10.6725146,13.6453813 10.7704669,13.0017946 10.9605263,12.5067204 Z M12.6403509,15.9052419 C12.8625742,16.0275544 13.0350871,16.1935473 13.1578947,16.4032258 C13.2807024,16.6129043 13.3421053,16.848789 13.3421053,17.1108871 C13.3421053,17.3729852 13.2807024,17.6088699 13.1578947,17.8185484 C13.0350871,18.0282269 12.8625742,18.1942198 12.6403509,18.3165323 C12.4181275,18.4388447 12.1608202,18.5 11.8684211,18.5 C11.5760219,18.5 11.3187146,18.4388447 11.0964912,18.3165323 C10.8742679,18.1942198 10.701755,18.0282269 10.5789474,17.8185484 C10.4561397,17.6088699 10.3947368,17.3729852 10.3947368,17.1108871 C10.3947368,16.848789 10.4561397,16.6129043 10.5789474,16.4032258 C10.701755,16.1935473 10.8742679,16.0275544 11.0964912,15.9052419 C11.3187146,15.7829295 11.5760219,15.7217742 11.8684211,15.7217742 C12.1608202,15.7217742 12.4181275,15.7829295 12.6403509,15.9052419 Z"/>
  </g>
</svg>
