<svg xmlns="http://www.w3.org/2000/svg" width="24" height="24" viewBox="0 0 24 24">
  <g fill="none" fill-rule="evenodd">
    <g fill="#000000" fill-rule="nonzero" transform="translate(2)">
      <path d="M0,2.00494659 C0,0.897645164 0.898212381,0 1.99079514,0 L18.0092049,0 C19.1086907,0 20,0.897026226 20,2.00494659 L20,21.9950534 C20,23.1023548 19.1017876,24 18.0092049,24 L1.99079514,24 C0.891309342,24 0,23.1029738 0,21.9950534 L0,2.00494659 Z M1.5,2.00494659 L1.5,21.9950534 C1.5,22.2766309 1.72183976,22.5 1.99079514,22.5 L18.0092049,22.5 C18.2741654,22.5 18.5,22.2731035 18.5,21.9950534 L18.5,2.00494659 C18.5,1.72336905 18.2781602,1.5 18.0092049,1.5 L1.99079514,1.5 C1.72583465,1.5 1.5,1.72689653 1.5,2.00494659 Z M4,5.5 C3.72385763,5.5 3.5,5.27614237 3.5,5 C3.5,4.72385763 3.72385763,4.5 4,4.5 L10,4.5 C10.2761424,4.5 10.5,4.72385763 10.5,5 C10.5,5.27614237 10.2761424,5.5 10,5.5 L4,5.5 Z M4,9 C3.72385763,9 3.5,8.77614237 3.5,8.5 C3.5,8.22385763 3.72385763,8 4,8 L16,8 C16.2761424,8 16.5,8.22385763 16.5,8.5 C16.5,8.77614237 16.2761424,9 16,9 L4,9 Z M4,13 C3.72385763,13 3.5,12.7761424 3.5,12.5 C3.5,12.2238576 3.72385763,12 4,12 L16,12 C16.2761424,12 16.5,12.2238576 16.5,12.5 C16.5,12.7761424 16.2761424,13 16,13 L4,13 Z"/>
      <path d="M7.04583662,17.5232888 L7.05029081,17.5298287 C7.04880662,17.5276484 7.04732189,17.5254684 7.04583662,17.5232888 Z M7.24571121,19.2227632 C7.09707435,19.2721621 6.97198962,19.3231236 6.87556736,19.3633399 C7.00136929,19.4160582 7.16356837,19.471806 7.36149849,19.5283574 C7.94520023,19.6951294 8.05293853,19.6672441 8.0574057,19.6426747 C8.07790032,19.5299543 8.02718103,19.3169198 7.91123609,19.0369076 C7.66758531,19.0954733 7.43976845,19.158269 7.24571121,19.2227632 Z M7.24010891,17.8154742 C7.17818964,17.7199032 7.11475311,17.6245265 7.05029081,17.5298287 C6.98689136,17.7553217 6.91728803,17.9841905 6.83585883,18.2059881 C6.82159914,18.2448288 6.80705793,18.283226 6.79223557,18.3211709 C6.54040832,18.9658429 6.20742374,19.4799888 5.79495841,19.8213901 C5.15181262,20.3537277 4.3154229,20.4660662 3.2921454,19.998351 C3.04099458,19.883556 2.93045628,19.5868984 3.04525121,19.3357476 C3.16004613,19.0845967 3.45670377,18.9740584 3.7078546,19.0888534 C4.78202434,19.5798302 5.43807185,19.1117186 5.89712404,17.8613478 C6.0263438,17.5093777 6.12294373,17.1272884 6.19055124,16.7444858 C6.23105839,16.5151291 6.2525685,16.3390727 6.26026704,16.2444397 C6.29696515,15.7933342 6.86632076,15.619216 7.14905509,15.972634 C7.20897084,16.0475286 7.31119227,16.1795911 7.44176804,16.3555845 C7.65886623,16.6481951 7.87598589,16.9578266 8.07936179,17.2717329 C8.2185285,17.4865337 8.34644482,17.6960869 8.46085036,17.8985115 C8.47363858,17.9211385 8.48625799,17.9436764 8.49870543,17.9661226 C8.67355648,18.2814277 8.81177856,18.5700659 8.90746652,18.8346435 C9.04301103,19.2094247 9.09320884,19.5359274 9.04127561,19.8215601 C8.89884779,20.6049132 8.15931673,20.7963212 7.08677737,20.4898814 C6.44830904,20.3074619 6.00578546,20.1017324 5.79495841,19.8213901 C5.6703455,19.6556891 5.62667812,19.4639212 5.67133886,19.2354928 C5.75494857,18.8078503 6.1376199,18.5533851 6.79223557,18.3211709 C6.83699731,18.3052924 6.88303055,18.2895179 6.93032665,18.2737992 C7.08359817,18.22286 7.25389748,18.1731722 7.4348736,18.1256386 C7.75515981,18.0415149 8.10888672,17.964138 8.46085036,17.8985115 C9.15349933,17.7693614 9.83931941,17.6857189 10.25,17.6857189 C10.8815702,17.6857189 11.5624114,18.1501473 11.9418925,18.7285691 C12.0175581,18.843902 12.0812424,18.9637669 12.130166,19.0853858 C12.2209403,19.3110418 12.2549573,19.5187288 12.238276,19.7026688 C12.1784994,20.3618072 11.4677037,20.7160104 10.3847006,20.4994097 C10.0480571,20.4320811 9.81537729,20.3601575 9.65498641,20.2623606 C9.29330359,20.0418277 9.20969576,19.5831133 9.55416627,19.2877065 C9.76150512,19.1098995 10.1351431,19.0004706 10.7403958,18.8943275 C10.7754374,18.8881823 10.8112554,18.8820481 10.8478624,18.8759122 C11.1694418,18.822011 11.5484411,18.7718156 11.9418925,18.7285691 C12.7646732,18.6381328 13.6506536,18.5780849 14.2068966,18.5780849 C14.9188941,18.5780849 15.6435196,18.7700167 16.3499171,19.0875605 C16.7687885,19.275854 17.0921802,19.4652365 17.2839815,19.5975924 C17.5112616,19.754431 17.5683657,20.0658208 17.4115271,20.2931009 C17.2546884,20.520381 16.9432986,20.5774851 16.7160185,20.4206465 C16.5705215,20.3202437 16.2977213,20.1604882 15.9399122,19.9996438 C15.3518419,19.7352911 14.7583205,19.5780849 14.2068966,19.5780849 C13.7287719,19.5780849 12.9698141,19.6273439 12.238276,19.7026688 C11.7974706,19.7480577 11.366621,19.8029109 11.0131704,19.8621542 C10.5565588,19.9386887 10.2247354,20.0300024 10.2051435,20.0468038 C10.4180866,19.8641907 10.3549774,19.5179419 10.1755845,19.4085587 C10.2089046,19.4288753 10.3516173,19.4729892 10.5808167,19.5188291 C10.9924178,19.6011493 11.2184839,19.5787048 11.265542,19.5388911 C11.2401844,19.560345 11.240778,19.5539522 11.2024169,19.4585904 C11.1197261,19.2530293 10.9386147,19.0433326 10.7403958,18.8943275 C10.5727737,18.7683226 10.3929177,18.6857189 10.25,18.6857189 C9.94934157,18.6857189 9.44536502,18.7433347 8.90746652,18.8346435 C8.57501664,18.8910772 8.22960892,18.9603812 7.91123609,19.0369076 C7.83982489,18.8644464 7.74367096,18.6665777 7.6241734,18.4510903 C7.5656192,18.3455008 7.50235706,18.2368433 7.4348736,18.1256386 C7.37333895,18.0242368 7.30829441,17.9207171 7.24010891,17.8154742 Z"/>
    </g>
  </g>
</svg>
