<svg xmlns="http://www.w3.org/2000/svg" width="24" height="24" viewBox="0 0 24 24">
  <g fill="none" fill-rule="evenodd">
    <path fill="#000000" fill-rule="nonzero" d="M9.02608254,7.96545542 C9.02750259,7.96685345 9.02891845,7.96825828 9.03033009,7.96966991 L11.7803301,10.7196699 C12.0732233,11.0125631 12.0732233,11.4874369 11.7803301,11.7803301 C11.4874369,12.0732233 11.0125631,12.0732233 10.7196699,11.7803301 L7.96966991,9.03033009 C7.96825828,9.02891845 7.96685345,9.02750259 7.96545542,9.02608254 C7.1357919,9.63820134 6.11014725,10 5,10 C2.23857625,10 0,7.76142375 0,5 C0,2.23857625 2.23857625,0 5,0 C7.76142375,0 10,2.23857625 10,5 C10,6.11014725 9.63820134,7.1357919 9.02608254,7.96545542 Z M5,9 C7.209139,9 9,7.209139 9,5 C9,2.790861 7.209139,1 5,1 C2.790861,1 1,2.790861 1,5 C1,7.209139 2.790861,9 5,9 Z" transform="translate(5.5 5)"/>
  </g>
</svg>
