<svg xmlns="http://www.w3.org/2000/svg" width="24" height="24" viewBox="0 0 24 24">
  <g fill="none" fill-rule="evenodd">
    <rect width="24" height="24"/>
    <path fill="#000000" fill-rule="nonzero" d="M17.1256864,4.99090486 C16.8846864,5.13550481 16.5830682,5.13322815 16.3442785,4.98500668 C15.5876637,4.51536088 14.7595148,4.17085005 13.8882353,3.96691538 C13.6145907,3.90286518 13.3997186,3.69120374 13.3315563,3.41855435 L12.9144177,1.75 L11.0855823,1.75 L10.6684437,3.41855435 C10.6002814,3.69120374 10.3854093,3.90286518 10.1117647,3.96691538 C9.24048523,4.17085005 8.41233631,4.51536088 7.65572148,4.98500668 C7.41693183,5.13322815 7.11531356,5.13550481 6.87431365,4.99090486 L5.39874645,4.10556454 L4.10556454,5.39874645 L4.99090486,6.87431365 C5.13550481,7.11531356 5.13322815,7.41693183 4.98500668,7.65572148 C4.51536088,8.41233631 4.17085005,9.24048523 3.96691538,10.1117647 C3.90286518,10.3854093 3.69120374,10.6002814 3.41855435,10.6684437 L1.75,11.0855823 L1.75,12.9144177 L3.41855435,13.3315563 C3.69120374,13.3997186 3.90286518,13.6145907 3.96691538,13.8882353 C4.17085005,14.7595148 4.51536088,15.5876637 4.98500668,16.3442785 C5.13322815,16.5830682 5.13550481,16.8846864 4.99090486,17.1256864 L4.10556454,18.6012536 L5.39874645,19.8944355 L6.87431365,19.0090951 C7.11531356,18.8644952 7.41693183,18.8667719 7.65572148,19.0149933 C8.41233631,19.4846391 9.24048523,19.8291499 10.1117647,20.0330846 C10.3854093,20.0971348 10.6002814,20.3087963 10.6684437,20.5814456 L11.0855823,22.25 L12.9144177,22.25 L13.3315563,20.5814456 C13.3997186,20.3087963 13.6145907,20.0971348 13.8882353,20.0330846 C14.7595148,19.8291499 15.5876637,19.4846391 16.3442785,19.0149933 C16.5830682,18.8667719 16.8846864,18.8644952 17.1256864,19.0090951 L18.6012536,19.8944355 L19.8944355,18.6012536 L19.0090951,17.1256864 C18.8644952,16.8846864 18.8667719,16.5830682 19.0149933,16.3442785 C19.4846391,15.5876637 19.8291499,14.7595148 20.0330846,13.8882353 C20.0971348,13.6145907 20.3087963,13.3997186 20.5814456,13.3315563 L22.25,12.9144177 L22.25,11.0855823 L20.5814456,10.6684437 C20.3087963,10.6002814 20.0971348,10.3854093 20.0330846,10.1117647 C19.8291499,9.24048523 19.4846391,8.41233631 19.0149933,7.65572148 C18.8667719,7.41693183 18.8644952,7.11531356 19.0090951,6.87431365 L19.8944355,5.39874645 L18.6012536,4.10556454 L17.1256864,4.99090486 Z M16.7358225,3.47553763 L18.3316426,2.51804554 C18.6267494,2.34098145 19.0044932,2.38748383 19.2478445,2.63083515 L21.3691649,4.75215549 C21.6125162,4.99550681 21.6590185,5.37325058 21.4819545,5.6683574 L20.5244624,7.26417754 C20.8860841,7.91379645 21.1725171,8.60348776 21.3771939,9.32121616 L23.1819017,9.77239312 C23.515777,9.85586194 23.75,10.1558493 23.75,10.5 L23.75,13.5 C23.75,13.8441507 23.515777,14.1441381 23.1819017,14.2276069 L21.3771939,14.6787838 C21.1725171,15.3965122 20.8860841,16.0862036 20.5244624,16.7358225 L21.4819545,18.3316426 C21.6590185,18.6267494 21.6125162,19.0044932 21.3691649,19.2478445 L19.2478445,21.3691649 C19.0044932,21.6125162 18.6267494,21.6590185 18.3316426,21.4819545 L16.7358225,20.5244624 C16.0862036,20.8860841 15.3965122,21.1725171 14.6787838,21.3771939 L14.2276069,23.1819017 C14.1441381,23.515777 13.8441507,23.75 13.5,23.75 L10.5,23.75 C10.1558493,23.75 9.85586194,23.515777 9.77239312,23.1819017 L9.32121616,21.3771939 C8.60348776,21.1725171 7.91379645,20.8860841 7.26417754,20.5244624 L5.6683574,21.4819545 C5.37325058,21.6590185 4.99550681,21.6125162 4.75215549,21.3691649 L2.63083515,19.2478445 C2.38748383,19.0044932 2.34098145,18.6267494 2.51804554,18.3316426 L3.47553763,16.7358225 C3.11391591,16.0862036 2.8274829,15.3965122 2.62280613,14.6787838 L0.818098281,14.2276069 C0.48422303,14.1441381 0.25,13.8441507 0.25,13.5 L0.25,10.5 C0.25,10.1558493 0.48422303,9.85586194 0.818098281,9.77239312 L2.62280613,9.32121616 C2.8274829,8.60348776 3.11391591,7.91379645 3.47553763,7.26417754 L2.51804554,5.6683574 C2.34098145,5.37325058 2.38748383,4.99550681 2.63083515,4.75215549 L4.75215549,2.63083515 C4.99550681,2.38748383 5.37325058,2.34098145 5.6683574,2.51804554 L7.26417754,3.47553763 C7.91379645,3.11391591 8.60348776,2.8274829 9.32121616,2.62280613 L9.77239312,0.818098281 C9.85586194,0.48422303 10.1558493,0.25 10.5,0.25 L13.5,0.25 C13.8441507,0.25 14.1441381,0.48422303 14.2276069,0.818098281 L14.6787838,2.62280613 C15.3965122,2.8274829 16.0862036,3.11391591 16.7358225,3.47553763 Z M12,16.75 C9.37664744,16.75 7.25,14.6233526 7.25,12 C7.25,9.37664744 9.37664744,7.25 12,7.25 C14.6233526,7.25 16.75,9.37664744 16.75,12 C16.75,14.6233526 14.6233526,16.75 12,16.75 Z M12,15.25 C13.7949254,15.25 15.25,13.7949254 15.25,12 C15.25,10.2050746 13.7949254,8.75 12,8.75 C10.2050746,8.75 8.75,10.2050746 8.75,12 C8.75,13.7949254 10.2050746,15.25 12,15.25 Z"/>
  </g>
</svg>
