<svg xmlns="http://www.w3.org/2000/svg" width="24" height="24" viewBox="0 0 24 24">
  <g fill="none" fill-rule="evenodd">
    <path fill="#000000" fill-rule="nonzero" d="M12,23 C18.0751322,23 23,18.0751322 23,12 C23,5.92486775 18.0751322,1 12,1 C5.92486775,1 1,5.92486775 1,12 C1,18.0751322 5.92486775,23 12,23 Z M12,24 C5.372583,24 0,18.627417 0,12 C0,5.372583 5.372583,0 12,0 C18.627417,0 24,5.372583 24,12 C24,18.627417 18.627417,24 12,24 Z"/>
    <path fill="#000000" fill-rule="nonzero" d="M7,11.5857864 L5.58578644,13 L9.29289322,16.7071068 C9.68341751,17.0976311 10.3165825,17.0976311 10.7071068,16.7071068 L18.4142136,9 L17,7.58578644 L10,14.5857864 L7,11.5857864 Z"/>
  </g>
</svg>
