<svg xmlns="http://www.w3.org/2000/svg" width="24" height="24" viewBox="0 0 24 24">
  <g fill="none" fill-rule="evenodd">
    <g transform="translate(1 3)">
      <g fill="#000000" fill-rule="nonzero">
        <path d="M8 8.5C9.93299662 8.5 11.5 6.93299662 11.5 5 11.5 3.06700338 9.93299662 1.5 8 1.5 6.06700338 1.5 4.5 3.06700338 4.5 5 4.5 6.93299662 6.06700338 8.5 8 8.5zM8 10C5.23857625 10 3 7.76142375 3 5 3 2.23857625 5.23857625 0 8 0 10.7614237 0 13 2.23857625 13 5 13 7.76142375 10.7614237 10 8 10zM14.5 15C14.5 13.8284271 13.1715729 12.5 12 12.5L4 12.5C2.76452295 12.5 1.5 13.7870067 1.5 15L1.5 18-.08276798e-13 18-.27373675e-13 15C-.18973268e-13 13 1.89518128 11 4 11L12 11C14 11 16 13 16 15L16 18 14.5 18 14.5 15z"/>
      </g>
      <g stroke="#000000" stroke-width="1.5" transform="translate(14 5)" stroke-linejoin="round">
        <path d="M4 0L4 8M0 4L8 4"/>
      </g>
    </g>
  </g>
</svg>
