<svg xmlns="http://www.w3.org/2000/svg" width="24" height="24" viewBox="0 0 24 24">
  <g fill="none" fill-rule="evenodd">
    <rect width="24" height="24"/>
    <path fill="#000000" fill-rule="nonzero" d="M10.5236801,3.07066607 L1.33839289,19.379058 C0.523406086,20.8260595 1.20579591,22 2.86318829,22 L21.1365298,22 C22.797781,22 23.4765964,20.8265643 22.6613252,19.379058 L13.476038,3.07066607 C12.6610512,1.62366458 11.3389512,1.62315976 10.5236801,3.07066607 Z M14.3473437,2.57992531 L23.5326309,18.8883172 C24.7232572,21.0022633 23.563058,23 21.1365298,23 L2.86318829,23 C0.439744546,23 -0.72287149,21.0010779 0.467087257,18.8883172 L9.65237445,2.57992531 C10.8500164,0.453523262 13.1498547,0.453794874 14.3473437,2.57992531 Z"/>
    <path fill="#000000" d="M10.7604697,7.23921215 C10.7232043,6.69288536 11.1483216,6.25 11.6961657,6.25 L12.3038399,6.25 C12.857876,6.25 13.2763676,6.69924421 13.239536,7.23921215 L12.687722,15.3290373 C12.6688255,15.6060677 12.4258435,15.8306452 12.1519214,15.8306452 L11.8480843,15.8306452 C11.5710662,15.8306452 11.3316216,15.6125391 11.3122837,15.3290373 L10.7604697,7.23921215 Z M12,19.75 C11.3096541,19.75 10.7500182,19.1650817 10.7500182,18.4435484 C10.7500182,17.7220151 11.3096541,17.1370968 12,17.1370968 C12.6903459,17.1370968 13.2499818,17.7220151 13.2499818,18.4435484 C13.2499818,19.1650817 12.6903459,19.75 12,19.75 Z"/>
  </g>
</svg>
